# xmcd
#
# Track frame offsets:
#	150
#	19755
#	39105
#	56066
#	68021
#	87082
#	104989
#	121808
#	142870
#	154617
#	167796
#	186480
#	205082
#	217745
#	233760
#	254276
#
# Disc length: 3676 seconds
#
# Revision: 0
# Processed by: cddbd v1.5.1PL0 Copyright (c) Steve Scherf et al.
# Submitted via: dBpowerAMP V4.0
#
DISCID=d30e5a10
DTITLE=Botafogo - Don Vilanova
DYEAR=1900
DGENRE=Blues
TTITLE0=Don Vilanova
TTITLE1=Hable con Dios
TTITLE2=Miles
TTITLE3=Tengo un Sentimiento
TTITLE4=Que Cosas que yo no Haría
TTITLE5=En el Corral
TTITLE6=Blues para Argentina
TTITLE7=Tanya
TTITLE8=Moby Dick
TTITLE9=Ando Burlando
TTITLE10=Los Nadies
TTITLE11=Can´t Stand teh Pain
TTITLE12=Ya Va Siendo Hora
TTITLE13=Oiga Vecino
TTITLE14=A Contraluz del Alba
TTITLE15=You don´t Love Me
EXTD=
EXTT0=
EXTT1=
EXTT2=
EXTT3=
EXTT4=
EXTT5=
EXTT6=
EXTT7=
EXTT8=
EXTT9=
EXTT10=
EXTT11=
EXTT12=
EXTT13=
EXTT14=
EXTT15=
PLAYORDER=
